<?xml version="1.0" encoding="UTF-8"?>
<svg aria-label="made in: mZ" role="img" version="1.1" viewBox="0 0 84 20" width="84" height="20" xml:space="preserve" xmlns="http://www.w3.org/2000/svg" xmlns:xlink="http://www.w3.org/1999/xlink"><defs><g id="a"><g id="b"><path d="M0-.3v.5l1-.5z"/><path d="M.2.3 0-.1l1-.2z"/></g><use transform="scale(-1 1)" xlink:href="#b"/><use transform="rotate(72)" xlink:href="#b"/><use transform="rotate(-72)" xlink:href="#b"/><use transform="scale(-1 1)rotate(72)" xlink:href="#b"/></g></defs><title>made in: mZ</title><linearGradient id="s" x2="0" y2="100%"><stop stop-color="#bbb" stop-opacity=".1" offset="0"/><stop stop-opacity=".1" offset="1"/></linearGradient><clipPath id="r"><rect width="84" height="20" rx="3" fill="#fff"/></clipPath><g clip-path="url(#r)"><rect width="55" height="20" fill="#555"/><rect x="55" width="29" height="20" fill="#012169"/><rect width="84" height="20" fill="url(#s)"/></g><text transform="scale(.1)" x="285" y="150" fill="#010101" fill-opacity=".3" font-family="Verdana, Geneva, 'DejaVu Sans', sans-serif" font-size="110px" text-anchor="middle" text-rendering="geometricPrecision" aria-hidden="true" textLength="450">made in</text><text transform="scale(.1)" x="285" y="140" fill="#ffffff" font-family="Verdana, Geneva, 'DejaVu Sans', sans-serif" font-size="110px" text-anchor="middle" text-rendering="geometricPrecision" textLength="450">made in</text><g transform="matrix(.029198 0 0 .029198 50.15 1.5773)"><use transform="matrix(45.4,0,0,45.4,900,120)" width="100%" height="100%" fill="#ffffff" xlink:href="#a"/><use transform="matrix(30,0,0,30,900,120)" width="100%" height="100%" fill="#cc142b" xlink:href="#a"/></g><g transform="matrix(.0040636 .028914 -.028914 .0040636 79.713 -18.414)"><use transform="matrix(5.6226 -40.007 40.007 5.6226 900.01 119.95)" width="100%" height="100%" fill="#ffffff" xlink:href="#a"/><use transform="matrix(3.4793 -24.757 24.757 3.4793 900.01 119.95)" width="100%" height="100%" fill="#cc142b" xlink:href="#a"/><use transform="matrix(6.3185 -44.958 44.958 6.3185 900.06 380)" width="100%" height="100%" fill="#ffffff" xlink:href="#a"/><use transform="matrix(4.1752 -29.708 29.708 4.1752 900.06 380)" width="100%" height="100%" fill="#cc142b" xlink:href="#a"/></g><g transform="matrix(.029198 0 0 .029198 50.15 1.5773)"><use transform="matrix(50.4,0,0,50.4,900,480)" width="100%" height="100%" fill="#ffffff" xlink:href="#a"/><use transform="matrix(35,0,0,35,900,480)" width="100%" height="100%" fill="#cc142b" xlink:href="#a"/></g><g stroke-width=".043694"><path d="m55 0h13.982v10.486h-13.982z" fill="#012169"/><path d="m56.639 0 5.3306 3.9543 5.3088-3.9543h1.7041v1.3545l-5.2432 3.9106 5.2432 3.8887v1.3327h-1.7477l-5.2432-3.9106-5.2214 3.9106h-1.7696v-1.3108l5.2214-3.8887-5.2214-3.8887v-1.3982z" fill="#fff"/><path d="m64.263 6.139 4.7189 3.4736v0.87387l-5.9205-4.3475zm-4.0198 0.43694 0.13108 0.76464-4.1946 3.1459h-1.1797zm8.7387-6.5759v0.06554l-5.4399 4.1072 0.043693-0.96126 4.3038-3.2115zm-13.982 0 5.2214 3.845h-1.3108l-3.9106-2.9275z" fill="#c8102e"/><path d="m60.265 0v10.486h3.4955v-10.486zm-5.2651 3.4955v3.4955h13.982v-3.4955z" fill="#fff"/><path d="m55 4.2164v2.0973h13.982v-2.0973zm5.9642-4.2164v10.486h2.0973v-10.486z" fill="#c8102e"/></g></svg>
